<svg width="1160" height="120" viewBox="0 0 1160 120" fill="none" xmlns="http://www.w3.org/2000/svg">
<path d="M38.6719 29H15.5078C15.1432 29 14.8047 28.9349 14.4922 28.8047C14.1797 28.6745 13.9062 28.4987 13.6719 28.2773C13.4505 28.043 13.2747 27.7695 13.1445 27.457C13.0143 27.1445 12.9492 26.806 12.9492 26.4414V0.992188H18.0273V23.9219H38.6719V29Z" fill="white"/>
<path d="M71.3672 17.6719C71.3672 19.3776 71.0742 20.9466 70.4883 22.3789C69.9023 23.8112 69.0885 25.0482 68.0469 26.0898C67.0052 27.1315 65.7682 27.9453 64.3359 28.5312C62.9167 29.1042 61.3672 29.3906 59.6875 29.3906H52.8125C51.1328 29.3906 49.5768 29.1042 48.1445 28.5312C46.7122 27.9453 45.4753 27.1315 44.4336 26.0898C43.3919 25.0482 42.5716 23.8112 41.9727 22.3789C41.3867 20.9466 41.0938 19.3776 41.0938 17.6719V12.3203C41.0938 10.6276 41.3867 9.0651 41.9727 7.63281C42.5716 6.1875 43.3919 4.95052 44.4336 3.92188C45.4753 2.88021 46.7122 2.06641 48.1445 1.48047C49.5768 0.894531 51.1328 0.601562 52.8125 0.601562H59.6875C61.3672 0.601562 62.9167 0.894531 64.3359 1.48047C65.7682 2.06641 67.0052 2.88021 68.0469 3.92188C69.0885 4.95052 69.9023 6.1875 70.4883 7.63281C71.0742 9.0651 71.3672 10.6276 71.3672 12.3203V17.6719ZM66.2891 12.3203C66.2891 11.3177 66.1263 10.4128 65.8008 9.60547C65.4883 8.78516 65.0391 8.08854 64.4531 7.51562C63.8802 6.92969 63.1836 6.48047 62.3633 6.16797C61.556 5.84245 60.6641 5.67969 59.6875 5.67969H52.8125C51.8229 5.67969 50.918 5.84245 50.0977 6.16797C49.2904 6.48047 48.5938 6.92969 48.0078 7.51562C47.4219 8.08854 46.9661 8.78516 46.6406 9.60547C46.3281 10.4128 46.1719 11.3177 46.1719 12.3203V17.6719C46.1719 18.6745 46.3281 19.5859 46.6406 20.4062C46.9661 21.2135 47.4219 21.9102 48.0078 22.4961C48.5938 23.069 49.2904 23.5182 50.0977 23.8438C50.918 24.1562 51.8229 24.3125 52.8125 24.3125H59.6484C60.638 24.3125 61.5365 24.1562 62.3438 23.8438C63.1641 23.5182 63.8672 23.069 64.4531 22.4961C65.0391 21.9102 65.4883 21.2135 65.8008 20.4062C66.1263 19.5859 66.2891 18.6745 66.2891 17.6719V12.3203Z" fill="white"/>
<path d="M104.023 26.4414C104.023 26.806 103.958 27.1445 103.828 27.457C103.698 27.7695 103.516 28.043 103.281 28.2773C103.06 28.4987 102.793 28.6745 102.48 28.8047C102.168 28.9349 101.829 29 101.465 29H83.1445C82.6758 29 82.168 28.9479 81.6211 28.8438C81.0872 28.7266 80.5534 28.5508 80.0195 28.3164C79.4987 28.082 78.9974 27.7826 78.5156 27.418C78.0339 27.0404 77.6042 26.5911 77.2266 26.0703C76.862 25.5365 76.569 24.9245 76.3477 24.2344C76.1263 23.5312 76.0156 22.7435 76.0156 21.8711V8.12109C76.0156 7.65234 76.0677 7.15104 76.1719 6.61719C76.2891 6.07031 76.4648 5.53646 76.6992 5.01562C76.9336 4.48177 77.2396 3.97396 77.6172 3.49219C77.9948 3.01042 78.444 2.58724 78.9648 2.22266C79.4987 1.84505 80.1107 1.54557 80.8008 1.32422C81.4909 1.10286 82.2721 0.992188 83.1445 0.992188H103.789V6.07031H83.1445C82.4805 6.07031 81.9727 6.24609 81.6211 6.59766C81.2695 6.94922 81.0938 7.47005 81.0938 8.16016V21.8711C81.0938 22.5221 81.2695 23.0299 81.6211 23.3945C81.9857 23.7461 82.4935 23.9219 83.1445 23.9219H98.9453V17.5547H85.4297V12.4375H101.465C101.829 12.4375 102.168 12.5091 102.48 12.6523C102.793 12.7826 103.06 12.9648 103.281 13.1992C103.516 13.4336 103.698 13.707 103.828 14.0195C103.958 14.319 104.023 14.6445 104.023 14.9961V26.4414Z" fill="white"/>
<path d="M138.711 17.6719C138.711 19.3776 138.418 20.9466 137.832 22.3789C137.246 23.8112 136.432 25.0482 135.391 26.0898C134.349 27.1315 133.112 27.9453 131.68 28.5312C130.26 29.1042 128.711 29.3906 127.031 29.3906H120.156C118.477 29.3906 116.921 29.1042 115.488 28.5312C114.056 27.9453 112.819 27.1315 111.777 26.0898C110.736 25.0482 109.915 23.8112 109.316 22.3789C108.73 20.9466 108.438 19.3776 108.438 17.6719V12.3203C108.438 10.6276 108.73 9.0651 109.316 7.63281C109.915 6.1875 110.736 4.95052 111.777 3.92188C112.819 2.88021 114.056 2.06641 115.488 1.48047C116.921 0.894531 118.477 0.601562 120.156 0.601562H127.031C128.711 0.601562 130.26 0.894531 131.68 1.48047C133.112 2.06641 134.349 2.88021 135.391 3.92188C136.432 4.95052 137.246 6.1875 137.832 7.63281C138.418 9.0651 138.711 10.6276 138.711 12.3203V17.6719ZM133.633 12.3203C133.633 11.3177 133.47 10.4128 133.145 9.60547C132.832 8.78516 132.383 8.08854 131.797 7.51562C131.224 6.92969 130.527 6.48047 129.707 6.16797C128.9 5.84245 128.008 5.67969 127.031 5.67969H120.156C119.167 5.67969 118.262 5.84245 117.441 6.16797C116.634 6.48047 115.938 6.92969 115.352 7.51562C114.766 8.08854 114.31 8.78516 113.984 9.60547C113.672 10.4128 113.516 11.3177 113.516 12.3203V17.6719C113.516 18.6745 113.672 19.5859 113.984 20.4062C114.31 21.2135 114.766 21.9102 115.352 22.4961C115.938 23.069 116.634 23.5182 117.441 23.8438C118.262 24.1562 119.167 24.3125 120.156 24.3125H126.992C127.982 24.3125 128.88 24.1562 129.688 23.8438C130.508 23.5182 131.211 23.069 131.797 22.4961C132.383 21.9102 132.832 21.2135 133.145 20.4062C133.47 19.5859 133.633 18.6745 133.633 17.6719V12.3203Z" fill="white"/>
<path d="M148.848 12.4375H166.68V0.992188H171.758V29H166.68V17.5547H148.848V29H143.77V0.992188H148.848V12.4375Z" fill="white"/>
<path d="M207.109 17.6719C207.109 19.3776 206.816 20.9466 206.23 22.3789C205.645 23.8112 204.831 25.0482 203.789 26.0898C202.747 27.1315 201.51 27.9453 200.078 28.5312C198.659 29.1042 197.109 29.3906 195.43 29.3906H188.555C186.875 29.3906 185.319 29.1042 183.887 28.5312C182.454 27.9453 181.217 27.1315 180.176 26.0898C179.134 25.0482 178.314 23.8112 177.715 22.3789C177.129 20.9466 176.836 19.3776 176.836 17.6719V12.3203C176.836 10.6276 177.129 9.0651 177.715 7.63281C178.314 6.1875 179.134 4.95052 180.176 3.92188C181.217 2.88021 182.454 2.06641 183.887 1.48047C185.319 0.894531 186.875 0.601562 188.555 0.601562H195.43C197.109 0.601562 198.659 0.894531 200.078 1.48047C201.51 2.06641 202.747 2.88021 203.789 3.92188C204.831 4.95052 205.645 6.1875 206.23 7.63281C206.816 9.0651 207.109 10.6276 207.109 12.3203V17.6719ZM202.031 12.3203C202.031 11.3177 201.868 10.4128 201.543 9.60547C201.23 8.78516 200.781 8.08854 200.195 7.51562C199.622 6.92969 198.926 6.48047 198.105 6.16797C197.298 5.84245 196.406 5.67969 195.43 5.67969H188.555C187.565 5.67969 186.66 5.84245 185.84 6.16797C185.033 6.48047 184.336 6.92969 183.75 7.51562C183.164 8.08854 182.708 8.78516 182.383 9.60547C182.07 10.4128 181.914 11.3177 181.914 12.3203V17.6719C181.914 18.6745 182.07 19.5859 182.383 20.4062C182.708 21.2135 183.164 21.9102 183.75 22.4961C184.336 23.069 185.033 23.5182 185.84 23.8438C186.66 24.1562 187.565 24.3125 188.555 24.3125H195.391C196.38 24.3125 197.279 24.1562 198.086 23.8438C198.906 23.5182 199.609 23.069 200.195 22.4961C200.781 21.9102 201.23 21.2135 201.543 20.4062C201.868 19.5859 202.031 18.6745 202.031 17.6719V12.3203Z" fill="white"/>
<path d="M237.852 29H214.688C214.323 29 213.984 28.9349 213.672 28.8047C213.359 28.6745 213.086 28.4987 212.852 28.2773C212.63 28.043 212.454 27.7695 212.324 27.457C212.194 27.1445 212.129 26.806 212.129 26.4414V0.992188H217.207V23.9219H237.852V29Z" fill="white"/>
<path d="M269.531 17.2812C269.531 18.987 269.232 20.556 268.633 21.9883C268.047 23.4206 267.233 24.6576 266.191 25.6992C265.15 26.7279 263.913 27.5352 262.48 28.1211C261.048 28.707 259.492 29 257.812 29H244.102C243.737 29 243.398 28.9349 243.086 28.8047C242.773 28.6745 242.5 28.4987 242.266 28.2773C242.044 28.043 241.868 27.7695 241.738 27.457C241.608 27.1445 241.543 26.806 241.543 26.4414V3.55078C241.543 3.19922 241.608 2.86719 241.738 2.55469C241.868 2.24219 242.044 1.96875 242.266 1.73438C242.5 1.5 242.773 1.31771 243.086 1.1875C243.398 1.05729 243.737 0.992188 244.102 0.992188H257.812C259.492 0.992188 261.048 1.28516 262.48 1.87109C263.913 2.45703 265.15 3.27083 266.191 4.3125C267.233 5.34115 268.047 6.57812 268.633 8.02344C269.232 9.45573 269.531 11.0182 269.531 12.7109V17.2812ZM264.453 12.7109C264.453 11.7214 264.29 10.8164 263.965 9.99609C263.652 9.17578 263.203 8.47917 262.617 7.90625C262.031 7.32031 261.328 6.87109 260.508 6.55859C259.701 6.23307 258.802 6.07031 257.812 6.07031H246.621V23.9219H257.812C258.802 23.9219 259.701 23.7656 260.508 23.4531C261.328 23.1276 262.031 22.6784 262.617 22.1055C263.203 21.5195 263.652 20.8229 263.965 20.0156C264.29 19.1953 264.453 18.2839 264.453 17.2812V12.7109Z" fill="white"/>
<path d="M297.539 17.5547H281.504V12.4375H297.539V17.5547ZM299.824 29H281.504C280.801 29 280.033 28.8763 279.199 28.6289C278.366 28.3815 277.591 27.9779 276.875 27.418C276.172 26.8451 275.579 26.1094 275.098 25.2109C274.629 24.2995 274.395 23.1862 274.395 21.8711V3.55078C274.395 3.19922 274.46 2.86719 274.59 2.55469C274.72 2.24219 274.896 1.96875 275.117 1.73438C275.352 1.5 275.625 1.31771 275.938 1.1875C276.25 1.05729 276.589 0.992188 276.953 0.992188H299.824V6.07031H279.473V21.8711C279.473 22.5352 279.648 23.043 280 23.3945C280.352 23.7461 280.866 23.9219 281.543 23.9219H299.824V29Z" fill="white"/>
<path d="M332.734 10.4062C332.734 11.5651 332.591 12.6003 332.305 13.5117C332.018 14.4232 331.628 15.2305 331.133 15.9336C330.651 16.6237 330.091 17.2161 329.453 17.7109C328.815 18.2057 328.145 18.6159 327.441 18.9414C326.751 19.2539 326.048 19.4818 325.332 19.625C324.629 19.7682 323.965 19.8398 323.34 19.8398L333.945 29H326.094L315.508 19.8398H311.855V14.7617H323.34C323.978 14.7096 324.557 14.5794 325.078 14.3711C325.612 14.1497 326.068 13.8568 326.445 13.4922C326.836 13.1276 327.135 12.6914 327.344 12.1836C327.552 11.6628 327.656 11.0703 327.656 10.4062V7.20312C327.656 6.91667 327.617 6.70182 327.539 6.55859C327.474 6.40234 327.383 6.29167 327.266 6.22656C327.161 6.14844 327.044 6.10286 326.914 6.08984C326.797 6.07682 326.686 6.07031 326.582 6.07031H309.824V29H304.746V3.55078C304.746 3.19922 304.811 2.86719 304.941 2.55469C305.072 2.24219 305.247 1.96875 305.469 1.73438C305.703 1.5 305.977 1.31771 306.289 1.1875C306.602 1.05729 306.94 0.992188 307.305 0.992188H326.582C327.715 0.992188 328.672 1.20052 329.453 1.61719C330.234 2.02083 330.866 2.53516 331.348 3.16016C331.842 3.77214 332.194 4.4362 332.402 5.15234C332.624 5.86849 332.734 6.53906 332.734 7.16406V10.4062Z" fill="white"/>
<path d="M852.672 29H829.508C829.143 29 828.805 28.9349 828.492 28.8047C828.18 28.6745 827.906 28.4987 827.672 28.2773C827.451 28.043 827.275 27.7695 827.145 27.457C827.014 27.1445 826.949 26.806 826.949 26.4414V0.992188H832.027V23.9219H852.672V29Z" fill="white"/>
<path d="M885.367 17.6719C885.367 19.3776 885.074 20.9466 884.488 22.3789C883.902 23.8112 883.089 25.0482 882.047 26.0898C881.005 27.1315 879.768 27.9453 878.336 28.5312C876.917 29.1042 875.367 29.3906 873.688 29.3906H866.813C865.133 29.3906 863.577 29.1042 862.145 28.5312C860.712 27.9453 859.475 27.1315 858.434 26.0898C857.392 25.0482 856.572 23.8112 855.973 22.3789C855.387 20.9466 855.094 19.3776 855.094 17.6719V12.3203C855.094 10.6276 855.387 9.0651 855.973 7.63281C856.572 6.1875 857.392 4.95052 858.434 3.92188C859.475 2.88021 860.712 2.06641 862.145 1.48047C863.577 0.894531 865.133 0.601562 866.813 0.601562H873.688C875.367 0.601562 876.917 0.894531 878.336 1.48047C879.768 2.06641 881.005 2.88021 882.047 3.92188C883.089 4.95052 883.902 6.1875 884.488 7.63281C885.074 9.0651 885.367 10.6276 885.367 12.3203V17.6719ZM880.289 12.3203C880.289 11.3177 880.126 10.4128 879.801 9.60547C879.488 8.78516 879.039 8.08854 878.453 7.51562C877.88 6.92969 877.184 6.48047 876.363 6.16797C875.556 5.84245 874.664 5.67969 873.688 5.67969H866.813C865.823 5.67969 864.918 5.84245 864.098 6.16797C863.29 6.48047 862.594 6.92969 862.008 7.51562C861.422 8.08854 860.966 8.78516 860.641 9.60547C860.328 10.4128 860.172 11.3177 860.172 12.3203V17.6719C860.172 18.6745 860.328 19.5859 860.641 20.4062C860.966 21.2135 861.422 21.9102 862.008 22.4961C862.594 23.069 863.29 23.5182 864.098 23.8438C864.918 24.1562 865.823 24.3125 866.813 24.3125H873.648C874.638 24.3125 875.537 24.1562 876.344 23.8438C877.164 23.5182 877.867 23.069 878.453 22.4961C879.039 21.9102 879.488 21.2135 879.801 20.4062C880.126 19.5859 880.289 18.6745 880.289 17.6719V12.3203Z" fill="white"/>
<path d="M918.023 26.4414C918.023 26.806 917.958 27.1445 917.828 27.457C917.698 27.7695 917.516 28.043 917.281 28.2773C917.06 28.4987 916.793 28.6745 916.481 28.8047C916.168 28.9349 915.829 29 915.465 29H897.145C896.676 29 896.168 28.9479 895.621 28.8438C895.087 28.7266 894.553 28.5508 894.02 28.3164C893.499 28.082 892.997 27.7826 892.516 27.418C892.034 27.0404 891.604 26.5911 891.227 26.0703C890.862 25.5365 890.569 24.9245 890.348 24.2344C890.126 23.5312 890.016 22.7435 890.016 21.8711V8.12109C890.016 7.65234 890.068 7.15104 890.172 6.61719C890.289 6.07031 890.465 5.53646 890.699 5.01562C890.934 4.48177 891.24 3.97396 891.617 3.49219C891.995 3.01042 892.444 2.58724 892.965 2.22266C893.499 1.84505 894.111 1.54557 894.801 1.32422C895.491 1.10286 896.272 0.992188 897.145 0.992188H917.789V6.07031H897.145C896.481 6.07031 895.973 6.24609 895.621 6.59766C895.27 6.94922 895.094 7.47005 895.094 8.16016V21.8711C895.094 22.5221 895.27 23.0299 895.621 23.3945C895.986 23.7461 896.494 23.9219 897.145 23.9219H912.945V17.5547H899.43V12.4375H915.465C915.829 12.4375 916.168 12.5091 916.481 12.6523C916.793 12.7826 917.06 12.9648 917.281 13.1992C917.516 13.4336 917.698 13.707 917.828 14.0195C917.958 14.319 918.023 14.6445 918.023 14.9961V26.4414Z" fill="white"/>
<path d="M952.711 17.6719C952.711 19.3776 952.418 20.9466 951.832 22.3789C951.246 23.8112 950.432 25.0482 949.391 26.0898C948.349 27.1315 947.112 27.9453 945.68 28.5312C944.26 29.1042 942.711 29.3906 941.031 29.3906H934.156C932.477 29.3906 930.921 29.1042 929.488 28.5312C928.056 27.9453 926.819 27.1315 925.777 26.0898C924.736 25.0482 923.915 23.8112 923.316 22.3789C922.73 20.9466 922.438 19.3776 922.438 17.6719V12.3203C922.438 10.6276 922.73 9.0651 923.316 7.63281C923.915 6.1875 924.736 4.95052 925.777 3.92188C926.819 2.88021 928.056 2.06641 929.488 1.48047C930.921 0.894531 932.477 0.601562 934.156 0.601562H941.031C942.711 0.601562 944.26 0.894531 945.68 1.48047C947.112 2.06641 948.349 2.88021 949.391 3.92188C950.432 4.95052 951.246 6.1875 951.832 7.63281C952.418 9.0651 952.711 10.6276 952.711 12.3203V17.6719ZM947.633 12.3203C947.633 11.3177 947.47 10.4128 947.145 9.60547C946.832 8.78516 946.383 8.08854 945.797 7.51562C945.224 6.92969 944.527 6.48047 943.707 6.16797C942.9 5.84245 942.008 5.67969 941.031 5.67969H934.156C933.167 5.67969 932.262 5.84245 931.441 6.16797C930.634 6.48047 929.938 6.92969 929.352 7.51562C928.766 8.08854 928.31 8.78516 927.984 9.60547C927.672 10.4128 927.516 11.3177 927.516 12.3203V17.6719C927.516 18.6745 927.672 19.5859 927.984 20.4062C928.31 21.2135 928.766 21.9102 929.352 22.4961C929.938 23.069 930.634 23.5182 931.441 23.8438C932.262 24.1562 933.167 24.3125 934.156 24.3125H940.992C941.982 24.3125 942.88 24.1562 943.688 23.8438C944.508 23.5182 945.211 23.069 945.797 22.4961C946.383 21.9102 946.832 21.2135 947.145 20.4062C947.47 19.5859 947.633 18.6745 947.633 17.6719V12.3203Z" fill="white"/>
<path d="M962.848 12.4375H980.68V0.992188H985.758V29H980.68V17.5547H962.848V29H957.77V0.992188H962.848V12.4375Z" fill="white"/>
<path d="M1021.11 17.6719C1021.11 19.3776 1020.82 20.9466 1020.23 22.3789C1019.64 23.8112 1018.83 25.0482 1017.79 26.0898C1016.75 27.1315 1015.51 27.9453 1014.08 28.5312C1012.66 29.1042 1011.11 29.3906 1009.43 29.3906H1002.55C1000.87 29.3906 999.319 29.1042 997.887 28.5312C996.454 27.9453 995.217 27.1315 994.176 26.0898C993.134 25.0482 992.314 23.8112 991.715 22.3789C991.129 20.9466 990.836 19.3776 990.836 17.6719V12.3203C990.836 10.6276 991.129 9.0651 991.715 7.63281C992.314 6.1875 993.134 4.95052 994.176 3.92188C995.217 2.88021 996.454 2.06641 997.887 1.48047C999.319 0.894531 1000.87 0.601562 1002.55 0.601562H1009.43C1011.11 0.601562 1012.66 0.894531 1014.08 1.48047C1015.51 2.06641 1016.75 2.88021 1017.79 3.92188C1018.83 4.95052 1019.64 6.1875 1020.23 7.63281C1020.82 9.0651 1021.11 10.6276 1021.11 12.3203V17.6719ZM1016.03 12.3203C1016.03 11.3177 1015.87 10.4128 1015.54 9.60547C1015.23 8.78516 1014.78 8.08854 1014.19 7.51562C1013.62 6.92969 1012.93 6.48047 1012.1 6.16797C1011.3 5.84245 1010.41 5.67969 1009.43 5.67969H1002.55C1001.56 5.67969 1000.66 5.84245 999.84 6.16797C999.033 6.48047 998.336 6.92969 997.75 7.51562C997.164 8.08854 996.708 8.78516 996.383 9.60547C996.07 10.4128 995.914 11.3177 995.914 12.3203V17.6719C995.914 18.6745 996.07 19.5859 996.383 20.4062C996.708 21.2135 997.164 21.9102 997.75 22.4961C998.336 23.069 999.033 23.5182 999.84 23.8438C1000.66 24.1562 1001.56 24.3125 1002.55 24.3125H1009.39C1010.38 24.3125 1011.28 24.1562 1012.09 23.8438C1012.91 23.5182 1013.61 23.069 1014.19 22.4961C1014.78 21.9102 1015.23 21.2135 1015.54 20.4062C1015.87 19.5859 1016.03 18.6745 1016.03 17.6719V12.3203Z" fill="white"/>
<path d="M1051.85 29H1028.69C1028.32 29 1027.98 28.9349 1027.67 28.8047C1027.36 28.6745 1027.09 28.4987 1026.85 28.2773C1026.63 28.043 1026.45 27.7695 1026.32 27.457C1026.19 27.1445 1026.13 26.806 1026.13 26.4414V0.992188H1031.21V23.9219H1051.85V29Z" fill="white"/>
<path d="M1083.53 17.2812C1083.53 18.987 1083.23 20.556 1082.63 21.9883C1082.05 23.4206 1081.23 24.6576 1080.19 25.6992C1079.15 26.7279 1077.91 27.5352 1076.48 28.1211C1075.05 28.707 1073.49 29 1071.81 29H1058.1C1057.74 29 1057.4 28.9349 1057.09 28.8047C1056.77 28.6745 1056.5 28.4987 1056.27 28.2773C1056.04 28.043 1055.87 27.7695 1055.74 27.457C1055.61 27.1445 1055.54 26.806 1055.54 26.4414V3.55078C1055.54 3.19922 1055.61 2.86719 1055.74 2.55469C1055.87 2.24219 1056.04 1.96875 1056.27 1.73438C1056.5 1.5 1056.77 1.31771 1057.09 1.1875C1057.4 1.05729 1057.74 0.992188 1058.1 0.992188H1071.81C1073.49 0.992188 1075.05 1.28516 1076.48 1.87109C1077.91 2.45703 1079.15 3.27083 1080.19 4.3125C1081.23 5.34115 1082.05 6.57812 1082.63 8.02344C1083.23 9.45573 1083.53 11.0182 1083.53 12.7109V17.2812ZM1078.45 12.7109C1078.45 11.7214 1078.29 10.8164 1077.96 9.99609C1077.65 9.17578 1077.2 8.47917 1076.62 7.90625C1076.03 7.32031 1075.33 6.87109 1074.51 6.55859C1073.7 6.23307 1072.8 6.07031 1071.81 6.07031H1060.62V23.9219H1071.81C1072.8 23.9219 1073.7 23.7656 1074.51 23.4531C1075.33 23.1276 1076.03 22.6784 1076.62 22.1055C1077.2 21.5195 1077.65 20.8229 1077.96 20.0156C1078.29 19.1953 1078.45 18.2839 1078.45 17.2812V12.7109Z" fill="white"/>
<path d="M1111.54 17.5547H1095.5V12.4375H1111.54V17.5547ZM1113.82 29H1095.5C1094.8 29 1094.03 28.8763 1093.2 28.6289C1092.37 28.3815 1091.59 27.9779 1090.88 27.418C1090.17 26.8451 1089.58 26.1094 1089.1 25.2109C1088.63 24.2995 1088.4 23.1862 1088.4 21.8711V3.55078C1088.4 3.19922 1088.46 2.86719 1088.59 2.55469C1088.72 2.24219 1088.9 1.96875 1089.12 1.73438C1089.35 1.5 1089.63 1.31771 1089.94 1.1875C1090.25 1.05729 1090.59 0.992188 1090.95 0.992188H1113.82V6.07031H1093.47V21.8711C1093.47 22.5352 1093.65 23.043 1094 23.3945C1094.35 23.7461 1094.87 23.9219 1095.54 23.9219H1113.82V29Z" fill="white"/>
<path d="M1146.73 10.4062C1146.73 11.5651 1146.59 12.6003 1146.3 13.5117C1146.02 14.4232 1145.63 15.2305 1145.13 15.9336C1144.65 16.6237 1144.09 17.2161 1143.45 17.7109C1142.81 18.2057 1142.14 18.6159 1141.44 18.9414C1140.75 19.2539 1140.05 19.4818 1139.33 19.625C1138.63 19.7682 1137.96 19.8398 1137.34 19.8398L1147.94 29H1140.09L1129.51 19.8398H1125.85V14.7617H1137.34C1137.98 14.7096 1138.56 14.5794 1139.08 14.3711C1139.61 14.1497 1140.07 13.8568 1140.44 13.4922C1140.84 13.1276 1141.13 12.6914 1141.34 12.1836C1141.55 11.6628 1141.66 11.0703 1141.66 10.4062V7.20312C1141.66 6.91667 1141.62 6.70182 1141.54 6.55859C1141.47 6.40234 1141.38 6.29167 1141.27 6.22656C1141.16 6.14844 1141.04 6.10286 1140.91 6.08984C1140.8 6.07682 1140.69 6.07031 1140.58 6.07031H1123.82V29H1118.75V3.55078C1118.75 3.19922 1118.81 2.86719 1118.94 2.55469C1119.07 2.24219 1119.25 1.96875 1119.47 1.73438C1119.7 1.5 1119.98 1.31771 1120.29 1.1875C1120.6 1.05729 1120.94 0.992188 1121.3 0.992188H1140.58C1141.71 0.992188 1142.67 1.20052 1143.45 1.61719C1144.23 2.02083 1144.87 2.53516 1145.35 3.16016C1145.84 3.77214 1146.19 4.4362 1146.4 5.15234C1146.62 5.86849 1146.73 6.53906 1146.73 7.16406V10.4062Z" fill="white"/>
<path d="M445.672 119H422.508C422.143 119 421.805 118.935 421.492 118.805C421.18 118.675 420.906 118.499 420.672 118.277C420.451 118.043 420.275 117.77 420.145 117.457C420.014 117.145 419.949 116.806 419.949 116.441V90.9922H425.027V113.922H445.672V119Z" fill="white"/>
<path d="M478.367 107.672C478.367 109.378 478.074 110.947 477.488 112.379C476.902 113.811 476.089 115.048 475.047 116.09C474.005 117.132 472.768 117.945 471.336 118.531C469.917 119.104 468.367 119.391 466.688 119.391H459.813C458.133 119.391 456.577 119.104 455.145 118.531C453.712 117.945 452.475 117.132 451.434 116.09C450.392 115.048 449.572 113.811 448.973 112.379C448.387 110.947 448.094 109.378 448.094 107.672V102.32C448.094 100.628 448.387 99.0651 448.973 97.6328C449.572 96.1875 450.392 94.9505 451.434 93.9219C452.475 92.8802 453.712 92.0664 455.145 91.4805C456.577 90.8945 458.133 90.6016 459.813 90.6016H466.688C468.367 90.6016 469.917 90.8945 471.336 91.4805C472.768 92.0664 474.005 92.8802 475.047 93.9219C476.089 94.9505 476.902 96.1875 477.488 97.6328C478.074 99.0651 478.367 100.628 478.367 102.32V107.672ZM473.289 102.32C473.289 101.318 473.126 100.413 472.801 99.6055C472.488 98.7852 472.039 98.0885 471.453 97.5156C470.88 96.9297 470.184 96.4805 469.363 96.168C468.556 95.8425 467.664 95.6797 466.688 95.6797H459.813C458.823 95.6797 457.918 95.8425 457.098 96.168C456.29 96.4805 455.594 96.9297 455.008 97.5156C454.422 98.0885 453.966 98.7852 453.641 99.6055C453.328 100.413 453.172 101.318 453.172 102.32V107.672C453.172 108.674 453.328 109.586 453.641 110.406C453.966 111.214 454.422 111.91 455.008 112.496C455.594 113.069 456.29 113.518 457.098 113.844C457.918 114.156 458.823 114.312 459.813 114.312H466.648C467.638 114.312 468.537 114.156 469.344 113.844C470.164 113.518 470.867 113.069 471.453 112.496C472.039 111.91 472.488 111.214 472.801 110.406C473.126 109.586 473.289 108.674 473.289 107.672V102.32Z" fill="white"/>
<path d="M511.023 116.441C511.023 116.806 510.958 117.145 510.828 117.457C510.698 117.77 510.516 118.043 510.281 118.277C510.06 118.499 509.793 118.675 509.481 118.805C509.168 118.935 508.829 119 508.465 119H490.145C489.676 119 489.168 118.948 488.621 118.844C488.087 118.727 487.553 118.551 487.02 118.316C486.499 118.082 485.997 117.783 485.516 117.418C485.034 117.04 484.604 116.591 484.227 116.07C483.862 115.536 483.569 114.924 483.348 114.234C483.126 113.531 483.016 112.743 483.016 111.871V98.1211C483.016 97.6523 483.068 97.151 483.172 96.6172C483.289 96.0703 483.465 95.5365 483.699 95.0156C483.934 94.4818 484.24 93.974 484.617 93.4922C484.995 93.0104 485.444 92.5872 485.965 92.2227C486.499 91.845 487.111 91.5456 487.801 91.3242C488.491 91.1029 489.272 90.9922 490.145 90.9922H510.789V96.0703H490.145C489.481 96.0703 488.973 96.2461 488.621 96.5977C488.27 96.9492 488.094 97.47 488.094 98.1602V111.871C488.094 112.522 488.27 113.03 488.621 113.395C488.986 113.746 489.494 113.922 490.145 113.922H505.945V107.555H492.43V102.438H508.465C508.829 102.438 509.168 102.509 509.481 102.652C509.793 102.783 510.06 102.965 510.281 103.199C510.516 103.434 510.698 103.707 510.828 104.019C510.958 104.319 511.023 104.644 511.023 104.996V116.441Z" fill="white"/>
<path d="M545.711 107.672C545.711 109.378 545.418 110.947 544.832 112.379C544.246 113.811 543.432 115.048 542.391 116.09C541.349 117.132 540.112 117.945 538.68 118.531C537.26 119.104 535.711 119.391 534.031 119.391H527.156C525.477 119.391 523.921 119.104 522.488 118.531C521.056 117.945 519.819 117.132 518.777 116.09C517.736 115.048 516.915 113.811 516.316 112.379C515.73 110.947 515.438 109.378 515.438 107.672V102.32C515.438 100.628 515.73 99.0651 516.316 97.6328C516.915 96.1875 517.736 94.9505 518.777 93.9219C519.819 92.8802 521.056 92.0664 522.488 91.4805C523.921 90.8945 525.477 90.6016 527.156 90.6016H534.031C535.711 90.6016 537.26 90.8945 538.68 91.4805C540.112 92.0664 541.349 92.8802 542.391 93.9219C543.432 94.9505 544.246 96.1875 544.832 97.6328C545.418 99.0651 545.711 100.628 545.711 102.32V107.672ZM540.633 102.32C540.633 101.318 540.47 100.413 540.145 99.6055C539.832 98.7852 539.383 98.0885 538.797 97.5156C538.224 96.9297 537.527 96.4805 536.707 96.168C535.9 95.8425 535.008 95.6797 534.031 95.6797H527.156C526.167 95.6797 525.262 95.8425 524.441 96.168C523.634 96.4805 522.938 96.9297 522.352 97.5156C521.766 98.0885 521.31 98.7852 520.984 99.6055C520.672 100.413 520.516 101.318 520.516 102.32V107.672C520.516 108.674 520.672 109.586 520.984 110.406C521.31 111.214 521.766 111.91 522.352 112.496C522.938 113.069 523.634 113.518 524.441 113.844C525.262 114.156 526.167 114.312 527.156 114.312H533.992C534.982 114.312 535.88 114.156 536.688 113.844C537.508 113.518 538.211 113.069 538.797 112.496C539.383 111.91 539.832 111.214 540.145 110.406C540.47 109.586 540.633 108.674 540.633 107.672V102.32Z" fill="white"/>
<path d="M555.848 102.438H573.68V90.9922H578.758V119H573.68V107.555H555.848V119H550.77V90.9922H555.848V102.438Z" fill="white"/>
<path d="M614.109 107.672C614.109 109.378 613.816 110.947 613.23 112.379C612.645 113.811 611.831 115.048 610.789 116.09C609.747 117.132 608.51 117.945 607.078 118.531C605.659 119.104 604.109 119.391 602.43 119.391H595.555C593.875 119.391 592.319 119.104 590.887 118.531C589.454 117.945 588.217 117.132 587.176 116.09C586.134 115.048 585.314 113.811 584.715 112.379C584.129 110.947 583.836 109.378 583.836 107.672V102.32C583.836 100.628 584.129 99.0651 584.715 97.6328C585.314 96.1875 586.134 94.9505 587.176 93.9219C588.217 92.8802 589.454 92.0664 590.887 91.4805C592.319 90.8945 593.875 90.6016 595.555 90.6016H602.43C604.109 90.6016 605.659 90.8945 607.078 91.4805C608.51 92.0664 609.747 92.8802 610.789 93.9219C611.831 94.9505 612.645 96.1875 613.23 97.6328C613.816 99.0651 614.109 100.628 614.109 102.32V107.672ZM609.031 102.32C609.031 101.318 608.868 100.413 608.543 99.6055C608.23 98.7852 607.781 98.0885 607.195 97.5156C606.622 96.9297 605.926 96.4805 605.105 96.168C604.298 95.8425 603.406 95.6797 602.43 95.6797H595.555C594.565 95.6797 593.66 95.8425 592.84 96.168C592.033 96.4805 591.336 96.9297 590.75 97.5156C590.164 98.0885 589.708 98.7852 589.383 99.6055C589.07 100.413 588.914 101.318 588.914 102.32V107.672C588.914 108.674 589.07 109.586 589.383 110.406C589.708 111.214 590.164 111.91 590.75 112.496C591.336 113.069 592.033 113.518 592.84 113.844C593.66 114.156 594.565 114.312 595.555 114.312H602.391C603.38 114.312 604.279 114.156 605.086 113.844C605.906 113.518 606.609 113.069 607.195 112.496C607.781 111.91 608.23 111.214 608.543 110.406C608.868 109.586 609.031 108.674 609.031 107.672V102.32Z" fill="white"/>
<path d="M644.852 119H621.688C621.323 119 620.984 118.935 620.672 118.805C620.359 118.675 620.086 118.499 619.852 118.277C619.63 118.043 619.454 117.77 619.324 117.457C619.194 117.145 619.129 116.806 619.129 116.441V90.9922H624.207V113.922H644.852V119Z" fill="white"/>
<path d="M676.531 107.281C676.531 108.987 676.232 110.556 675.633 111.988C675.047 113.421 674.233 114.658 673.191 115.699C672.15 116.728 670.913 117.535 669.48 118.121C668.048 118.707 666.492 119 664.812 119H651.102C650.737 119 650.398 118.935 650.086 118.805C649.773 118.675 649.5 118.499 649.266 118.277C649.044 118.043 648.868 117.77 648.738 117.457C648.608 117.145 648.543 116.806 648.543 116.441V93.5508C648.543 93.1992 648.608 92.8672 648.738 92.5547C648.868 92.2422 649.044 91.9687 649.266 91.7344C649.5 91.5 649.773 91.3177 650.086 91.1875C650.398 91.0573 650.737 90.9922 651.102 90.9922H664.812C666.492 90.9922 668.048 91.2852 669.48 91.8711C670.913 92.457 672.15 93.2708 673.191 94.3125C674.233 95.3411 675.047 96.5781 675.633 98.0234C676.232 99.4557 676.531 101.018 676.531 102.711V107.281ZM671.453 102.711C671.453 101.721 671.29 100.816 670.965 99.9961C670.652 99.1758 670.203 98.4792 669.617 97.9062C669.031 97.3203 668.328 96.8711 667.508 96.5586C666.701 96.2331 665.802 96.0703 664.812 96.0703H653.621V113.922H664.812C665.802 113.922 666.701 113.766 667.508 113.453C668.328 113.128 669.031 112.678 669.617 112.105C670.203 111.519 670.652 110.823 670.965 110.016C671.29 109.195 671.453 108.284 671.453 107.281V102.711Z" fill="white"/>
<path d="M704.539 107.555H688.504V102.438H704.539V107.555ZM706.824 119H688.504C687.801 119 687.033 118.876 686.199 118.629C685.366 118.382 684.591 117.978 683.875 117.418C683.172 116.845 682.579 116.109 682.098 115.211C681.629 114.299 681.395 113.186 681.395 111.871V93.5508C681.395 93.1992 681.46 92.8672 681.59 92.5547C681.72 92.2422 681.896 91.9687 682.117 91.7344C682.352 91.5 682.625 91.3177 682.938 91.1875C683.25 91.0573 683.589 90.9922 683.953 90.9922H706.824V96.0703H686.473V111.871C686.473 112.535 686.648 113.043 687 113.395C687.352 113.746 687.866 113.922 688.543 113.922H706.824V119Z" fill="white"/>
<path d="M739.734 100.406C739.734 101.565 739.591 102.6 739.305 103.512C739.018 104.423 738.628 105.23 738.133 105.934C737.651 106.624 737.091 107.216 736.453 107.711C735.815 108.206 735.145 108.616 734.441 108.941C733.751 109.254 733.048 109.482 732.332 109.625C731.629 109.768 730.965 109.84 730.34 109.84L740.945 119H733.094L722.508 109.84H718.855V104.762H730.34C730.978 104.71 731.557 104.579 732.078 104.371C732.612 104.15 733.068 103.857 733.445 103.492C733.836 103.128 734.135 102.691 734.344 102.184C734.552 101.663 734.656 101.07 734.656 100.406V97.2031C734.656 96.9167 734.617 96.7018 734.539 96.5586C734.474 96.4023 734.383 96.2917 734.266 96.2266C734.161 96.1484 734.044 96.1029 733.914 96.0898C733.797 96.0768 733.686 96.0703 733.582 96.0703H716.824V119H711.746V93.5508C711.746 93.1992 711.811 92.8672 711.941 92.5547C712.072 92.2422 712.247 91.9687 712.469 91.7344C712.703 91.5 712.977 91.3177 713.289 91.1875C713.602 91.0573 713.94 90.9922 714.305 90.9922H733.582C734.715 90.9922 735.672 91.2005 736.453 91.6172C737.234 92.0208 737.866 92.5352 738.348 93.1602C738.842 93.7721 739.194 94.4362 739.402 95.1523C739.624 95.8685 739.734 96.5391 739.734 97.1641V100.406Z" fill="white"/>
<path d="M445.672 29H422.508C422.143 29 421.805 28.9349 421.492 28.8047C421.18 28.6745 420.906 28.4987 420.672 28.2773C420.451 28.043 420.275 27.7695 420.145 27.457C420.014 27.1445 419.949 26.806 419.949 26.4414V0.992188H425.027V23.9219H445.672V29Z" fill="white"/>
<path d="M478.367 17.6719C478.367 19.3776 478.074 20.9466 477.488 22.3789C476.902 23.8112 476.089 25.0482 475.047 26.0898C474.005 27.1315 472.768 27.9453 471.336 28.5312C469.917 29.1042 468.367 29.3906 466.688 29.3906H459.813C458.133 29.3906 456.577 29.1042 455.145 28.5312C453.712 27.9453 452.475 27.1315 451.434 26.0898C450.392 25.0482 449.572 23.8112 448.973 22.3789C448.387 20.9466 448.094 19.3776 448.094 17.6719V12.3203C448.094 10.6276 448.387 9.0651 448.973 7.63281C449.572 6.1875 450.392 4.95052 451.434 3.92188C452.475 2.88021 453.712 2.06641 455.145 1.48047C456.577 0.894531 458.133 0.601562 459.813 0.601562H466.688C468.367 0.601562 469.917 0.894531 471.336 1.48047C472.768 2.06641 474.005 2.88021 475.047 3.92188C476.089 4.95052 476.902 6.1875 477.488 7.63281C478.074 9.0651 478.367 10.6276 478.367 12.3203V17.6719ZM473.289 12.3203C473.289 11.3177 473.126 10.4128 472.801 9.60547C472.488 8.78516 472.039 8.08854 471.453 7.51562C470.88 6.92969 470.184 6.48047 469.363 6.16797C468.556 5.84245 467.664 5.67969 466.688 5.67969H459.813C458.823 5.67969 457.918 5.84245 457.098 6.16797C456.29 6.48047 455.594 6.92969 455.008 7.51562C454.422 8.08854 453.966 8.78516 453.641 9.60547C453.328 10.4128 453.172 11.3177 453.172 12.3203V17.6719C453.172 18.6745 453.328 19.5859 453.641 20.4062C453.966 21.2135 454.422 21.9102 455.008 22.4961C455.594 23.069 456.29 23.5182 457.098 23.8438C457.918 24.1562 458.823 24.3125 459.813 24.3125H466.648C467.638 24.3125 468.537 24.1562 469.344 23.8438C470.164 23.5182 470.867 23.069 471.453 22.4961C472.039 21.9102 472.488 21.2135 472.801 20.4062C473.126 19.5859 473.289 18.6745 473.289 17.6719V12.3203Z" fill="white"/>
<path d="M511.023 26.4414C511.023 26.806 510.958 27.1445 510.828 27.457C510.698 27.7695 510.516 28.043 510.281 28.2773C510.06 28.4987 509.793 28.6745 509.481 28.8047C509.168 28.9349 508.829 29 508.465 29H490.145C489.676 29 489.168 28.9479 488.621 28.8438C488.087 28.7266 487.553 28.5508 487.02 28.3164C486.499 28.082 485.997 27.7826 485.516 27.418C485.034 27.0404 484.604 26.5911 484.227 26.0703C483.862 25.5365 483.569 24.9245 483.348 24.2344C483.126 23.5312 483.016 22.7435 483.016 21.8711V8.12109C483.016 7.65234 483.068 7.15104 483.172 6.61719C483.289 6.07031 483.465 5.53646 483.699 5.01562C483.934 4.48177 484.24 3.97396 484.617 3.49219C484.995 3.01042 485.444 2.58724 485.965 2.22266C486.499 1.84505 487.111 1.54557 487.801 1.32422C488.491 1.10286 489.272 0.992188 490.145 0.992188H510.789V6.07031H490.145C489.481 6.07031 488.973 6.24609 488.621 6.59766C488.27 6.94922 488.094 7.47005 488.094 8.16016V21.8711C488.094 22.5221 488.27 23.0299 488.621 23.3945C488.986 23.7461 489.494 23.9219 490.145 23.9219H505.945V17.5547H492.43V12.4375H508.465C508.829 12.4375 509.168 12.5091 509.481 12.6523C509.793 12.7826 510.06 12.9648 510.281 13.1992C510.516 13.4336 510.698 13.707 510.828 14.0195C510.958 14.319 511.023 14.6445 511.023 14.9961V26.4414Z" fill="white"/>
<path d="M545.711 17.6719C545.711 19.3776 545.418 20.9466 544.832 22.3789C544.246 23.8112 543.432 25.0482 542.391 26.0898C541.349 27.1315 540.112 27.9453 538.68 28.5312C537.26 29.1042 535.711 29.3906 534.031 29.3906H527.156C525.477 29.3906 523.921 29.1042 522.488 28.5312C521.056 27.9453 519.819 27.1315 518.777 26.0898C517.736 25.0482 516.915 23.8112 516.316 22.3789C515.73 20.9466 515.438 19.3776 515.438 17.6719V12.3203C515.438 10.6276 515.73 9.0651 516.316 7.63281C516.915 6.1875 517.736 4.95052 518.777 3.92188C519.819 2.88021 521.056 2.06641 522.488 1.48047C523.921 0.894531 525.477 0.601562 527.156 0.601562H534.031C535.711 0.601562 537.26 0.894531 538.68 1.48047C540.112 2.06641 541.349 2.88021 542.391 3.92188C543.432 4.95052 544.246 6.1875 544.832 7.63281C545.418 9.0651 545.711 10.6276 545.711 12.3203V17.6719ZM540.633 12.3203C540.633 11.3177 540.47 10.4128 540.145 9.60547C539.832 8.78516 539.383 8.08854 538.797 7.51562C538.224 6.92969 537.527 6.48047 536.707 6.16797C535.9 5.84245 535.008 5.67969 534.031 5.67969H527.156C526.167 5.67969 525.262 5.84245 524.441 6.16797C523.634 6.48047 522.938 6.92969 522.352 7.51562C521.766 8.08854 521.31 8.78516 520.984 9.60547C520.672 10.4128 520.516 11.3177 520.516 12.3203V17.6719C520.516 18.6745 520.672 19.5859 520.984 20.4062C521.31 21.2135 521.766 21.9102 522.352 22.4961C522.938 23.069 523.634 23.5182 524.441 23.8438C525.262 24.1562 526.167 24.3125 527.156 24.3125H533.992C534.982 24.3125 535.88 24.1562 536.688 23.8438C537.508 23.5182 538.211 23.069 538.797 22.4961C539.383 21.9102 539.832 21.2135 540.145 20.4062C540.47 19.5859 540.633 18.6745 540.633 17.6719V12.3203Z" fill="white"/>
<path d="M555.848 12.4375H573.68V0.992188H578.758V29H573.68V17.5547H555.848V29H550.77V0.992188H555.848V12.4375Z" fill="white"/>
<path d="M614.109 17.6719C614.109 19.3776 613.816 20.9466 613.23 22.3789C612.645 23.8112 611.831 25.0482 610.789 26.0898C609.747 27.1315 608.51 27.9453 607.078 28.5312C605.659 29.1042 604.109 29.3906 602.43 29.3906H595.555C593.875 29.3906 592.319 29.1042 590.887 28.5312C589.454 27.9453 588.217 27.1315 587.176 26.0898C586.134 25.0482 585.314 23.8112 584.715 22.3789C584.129 20.9466 583.836 19.3776 583.836 17.6719V12.3203C583.836 10.6276 584.129 9.0651 584.715 7.63281C585.314 6.1875 586.134 4.95052 587.176 3.92188C588.217 2.88021 589.454 2.06641 590.887 1.48047C592.319 0.894531 593.875 0.601562 595.555 0.601562H602.43C604.109 0.601562 605.659 0.894531 607.078 1.48047C608.51 2.06641 609.747 2.88021 610.789 3.92188C611.831 4.95052 612.645 6.1875 613.23 7.63281C613.816 9.0651 614.109 10.6276 614.109 12.3203V17.6719ZM609.031 12.3203C609.031 11.3177 608.868 10.4128 608.543 9.60547C608.23 8.78516 607.781 8.08854 607.195 7.51562C606.622 6.92969 605.926 6.48047 605.105 6.16797C604.298 5.84245 603.406 5.67969 602.43 5.67969H595.555C594.565 5.67969 593.66 5.84245 592.84 6.16797C592.033 6.48047 591.336 6.92969 590.75 7.51562C590.164 8.08854 589.708 8.78516 589.383 9.60547C589.07 10.4128 588.914 11.3177 588.914 12.3203V17.6719C588.914 18.6745 589.07 19.5859 589.383 20.4062C589.708 21.2135 590.164 21.9102 590.75 22.4961C591.336 23.069 592.033 23.5182 592.84 23.8438C593.66 24.1562 594.565 24.3125 595.555 24.3125H602.391C603.38 24.3125 604.279 24.1562 605.086 23.8438C605.906 23.5182 606.609 23.069 607.195 22.4961C607.781 21.9102 608.23 21.2135 608.543 20.4062C608.868 19.5859 609.031 18.6745 609.031 17.6719V12.3203Z" fill="white"/>
<path d="M644.852 29H621.688C621.323 29 620.984 28.9349 620.672 28.8047C620.359 28.6745 620.086 28.4987 619.852 28.2773C619.63 28.043 619.454 27.7695 619.324 27.457C619.194 27.1445 619.129 26.806 619.129 26.4414V0.992188H624.207V23.9219H644.852V29Z" fill="white"/>
<path d="M676.531 17.2812C676.531 18.987 676.232 20.556 675.633 21.9883C675.047 23.4206 674.233 24.6576 673.191 25.6992C672.15 26.7279 670.913 27.5352 669.48 28.1211C668.048 28.707 666.492 29 664.812 29H651.102C650.737 29 650.398 28.9349 650.086 28.8047C649.773 28.6745 649.5 28.4987 649.266 28.2773C649.044 28.043 648.868 27.7695 648.738 27.457C648.608 27.1445 648.543 26.806 648.543 26.4414V3.55078C648.543 3.19922 648.608 2.86719 648.738 2.55469C648.868 2.24219 649.044 1.96875 649.266 1.73438C649.5 1.5 649.773 1.31771 650.086 1.1875C650.398 1.05729 650.737 0.992188 651.102 0.992188H664.812C666.492 0.992188 668.048 1.28516 669.48 1.87109C670.913 2.45703 672.15 3.27083 673.191 4.3125C674.233 5.34115 675.047 6.57812 675.633 8.02344C676.232 9.45573 676.531 11.0182 676.531 12.7109V17.2812ZM671.453 12.7109C671.453 11.7214 671.29 10.8164 670.965 9.99609C670.652 9.17578 670.203 8.47917 669.617 7.90625C669.031 7.32031 668.328 6.87109 667.508 6.55859C666.701 6.23307 665.802 6.07031 664.812 6.07031H653.621V23.9219H664.812C665.802 23.9219 666.701 23.7656 667.508 23.4531C668.328 23.1276 669.031 22.6784 669.617 22.1055C670.203 21.5195 670.652 20.8229 670.965 20.0156C671.29 19.1953 671.453 18.2839 671.453 17.2812V12.7109Z" fill="white"/>
<path d="M704.539 17.5547H688.504V12.4375H704.539V17.5547ZM706.824 29H688.504C687.801 29 687.033 28.8763 686.199 28.6289C685.366 28.3815 684.591 27.9779 683.875 27.418C683.172 26.8451 682.579 26.1094 682.098 25.2109C681.629 24.2995 681.395 23.1862 681.395 21.8711V3.55078C681.395 3.19922 681.46 2.86719 681.59 2.55469C681.72 2.24219 681.896 1.96875 682.117 1.73438C682.352 1.5 682.625 1.31771 682.938 1.1875C683.25 1.05729 683.589 0.992188 683.953 0.992188H706.824V6.07031H686.473V21.8711C686.473 22.5352 686.648 23.043 687 23.3945C687.352 23.7461 687.866 23.9219 688.543 23.9219H706.824V29Z" fill="white"/>
<path d="M739.734 10.4062C739.734 11.5651 739.591 12.6003 739.305 13.5117C739.018 14.4232 738.628 15.2305 738.133 15.9336C737.651 16.6237 737.091 17.2161 736.453 17.7109C735.815 18.2057 735.145 18.6159 734.441 18.9414C733.751 19.2539 733.048 19.4818 732.332 19.625C731.629 19.7682 730.965 19.8398 730.34 19.8398L740.945 29H733.094L722.508 19.8398H718.855V14.7617H730.34C730.978 14.7096 731.557 14.5794 732.078 14.3711C732.612 14.1497 733.068 13.8568 733.445 13.4922C733.836 13.1276 734.135 12.6914 734.344 12.1836C734.552 11.6628 734.656 11.0703 734.656 10.4062V7.20312C734.656 6.91667 734.617 6.70182 734.539 6.55859C734.474 6.40234 734.383 6.29167 734.266 6.22656C734.161 6.14844 734.044 6.10286 733.914 6.08984C733.797 6.07682 733.686 6.07031 733.582 6.07031H716.824V29H711.746V3.55078C711.746 3.19922 711.811 2.86719 711.941 2.55469C712.072 2.24219 712.247 1.96875 712.469 1.73438C712.703 1.5 712.977 1.31771 713.289 1.1875C713.602 1.05729 713.94 0.992188 714.305 0.992188H733.582C734.715 0.992188 735.672 1.20052 736.453 1.61719C737.234 2.02083 737.866 2.53516 738.348 3.16016C738.842 3.77214 739.194 4.4362 739.402 5.15234C739.624 5.86849 739.734 6.53906 739.734 7.16406V10.4062Z" fill="white"/>
<path d="M852.672 119H829.508C829.143 119 828.805 118.935 828.492 118.805C828.18 118.675 827.906 118.499 827.672 118.277C827.451 118.043 827.275 117.77 827.145 117.457C827.014 117.145 826.949 116.806 826.949 116.441V90.9922H832.027V113.922H852.672V119Z" fill="white"/>
<path d="M885.367 107.672C885.367 109.378 885.074 110.947 884.488 112.379C883.902 113.811 883.089 115.048 882.047 116.09C881.005 117.132 879.768 117.945 878.336 118.531C876.917 119.104 875.367 119.391 873.688 119.391H866.813C865.133 119.391 863.577 119.104 862.145 118.531C860.712 117.945 859.475 117.132 858.434 116.09C857.392 115.048 856.572 113.811 855.973 112.379C855.387 110.947 855.094 109.378 855.094 107.672V102.32C855.094 100.628 855.387 99.0651 855.973 97.6328C856.572 96.1875 857.392 94.9505 858.434 93.9219C859.475 92.8802 860.712 92.0664 862.145 91.4805C863.577 90.8945 865.133 90.6016 866.813 90.6016H873.688C875.367 90.6016 876.917 90.8945 878.336 91.4805C879.768 92.0664 881.005 92.8802 882.047 93.9219C883.089 94.9505 883.902 96.1875 884.488 97.6328C885.074 99.0651 885.367 100.628 885.367 102.32V107.672ZM880.289 102.32C880.289 101.318 880.126 100.413 879.801 99.6055C879.488 98.7852 879.039 98.0885 878.453 97.5156C877.88 96.9297 877.184 96.4805 876.363 96.168C875.556 95.8425 874.664 95.6797 873.688 95.6797H866.813C865.823 95.6797 864.918 95.8425 864.098 96.168C863.29 96.4805 862.594 96.9297 862.008 97.5156C861.422 98.0885 860.966 98.7852 860.641 99.6055C860.328 100.413 860.172 101.318 860.172 102.32V107.672C860.172 108.674 860.328 109.586 860.641 110.406C860.966 111.214 861.422 111.91 862.008 112.496C862.594 113.069 863.29 113.518 864.098 113.844C864.918 114.156 865.823 114.312 866.813 114.312H873.648C874.638 114.312 875.537 114.156 876.344 113.844C877.164 113.518 877.867 113.069 878.453 112.496C879.039 111.91 879.488 111.214 879.801 110.406C880.126 109.586 880.289 108.674 880.289 107.672V102.32Z" fill="white"/>
<path d="M918.023 116.441C918.023 116.806 917.958 117.145 917.828 117.457C917.698 117.77 917.516 118.043 917.281 118.277C917.06 118.499 916.793 118.675 916.481 118.805C916.168 118.935 915.829 119 915.465 119H897.145C896.676 119 896.168 118.948 895.621 118.844C895.087 118.727 894.553 118.551 894.02 118.316C893.499 118.082 892.997 117.783 892.516 117.418C892.034 117.04 891.604 116.591 891.227 116.07C890.862 115.536 890.569 114.924 890.348 114.234C890.126 113.531 890.016 112.743 890.016 111.871V98.1211C890.016 97.6523 890.068 97.151 890.172 96.6172C890.289 96.0703 890.465 95.5365 890.699 95.0156C890.934 94.4818 891.24 93.974 891.617 93.4922C891.995 93.0104 892.444 92.5872 892.965 92.2227C893.499 91.845 894.111 91.5456 894.801 91.3242C895.491 91.1029 896.272 90.9922 897.145 90.9922H917.789V96.0703H897.145C896.481 96.0703 895.973 96.2461 895.621 96.5977C895.27 96.9492 895.094 97.47 895.094 98.1602V111.871C895.094 112.522 895.27 113.03 895.621 113.395C895.986 113.746 896.494 113.922 897.145 113.922H912.945V107.555H899.43V102.438H915.465C915.829 102.438 916.168 102.509 916.481 102.652C916.793 102.783 917.06 102.965 917.281 103.199C917.516 103.434 917.698 103.707 917.828 104.019C917.958 104.319 918.023 104.644 918.023 104.996V116.441Z" fill="white"/>
<path d="M952.711 107.672C952.711 109.378 952.418 110.947 951.832 112.379C951.246 113.811 950.432 115.048 949.391 116.09C948.349 117.132 947.112 117.945 945.68 118.531C944.26 119.104 942.711 119.391 941.031 119.391H934.156C932.477 119.391 930.921 119.104 929.488 118.531C928.056 117.945 926.819 117.132 925.777 116.09C924.736 115.048 923.915 113.811 923.316 112.379C922.73 110.947 922.438 109.378 922.438 107.672V102.32C922.438 100.628 922.73 99.0651 923.316 97.6328C923.915 96.1875 924.736 94.9505 925.777 93.9219C926.819 92.8802 928.056 92.0664 929.488 91.4805C930.921 90.8945 932.477 90.6016 934.156 90.6016H941.031C942.711 90.6016 944.26 90.8945 945.68 91.4805C947.112 92.0664 948.349 92.8802 949.391 93.9219C950.432 94.9505 951.246 96.1875 951.832 97.6328C952.418 99.0651 952.711 100.628 952.711 102.32V107.672ZM947.633 102.32C947.633 101.318 947.47 100.413 947.145 99.6055C946.832 98.7852 946.383 98.0885 945.797 97.5156C945.224 96.9297 944.527 96.4805 943.707 96.168C942.9 95.8425 942.008 95.6797 941.031 95.6797H934.156C933.167 95.6797 932.262 95.8425 931.441 96.168C930.634 96.4805 929.938 96.9297 929.352 97.5156C928.766 98.0885 928.31 98.7852 927.984 99.6055C927.672 100.413 927.516 101.318 927.516 102.32V107.672C927.516 108.674 927.672 109.586 927.984 110.406C928.31 111.214 928.766 111.91 929.352 112.496C929.938 113.069 930.634 113.518 931.441 113.844C932.262 114.156 933.167 114.312 934.156 114.312H940.992C941.982 114.312 942.88 114.156 943.688 113.844C944.508 113.518 945.211 113.069 945.797 112.496C946.383 111.91 946.832 111.214 947.145 110.406C947.47 109.586 947.633 108.674 947.633 107.672V102.32Z" fill="white"/>
<path d="M962.848 102.438H980.68V90.9922H985.758V119H980.68V107.555H962.848V119H957.77V90.9922H962.848V102.438Z" fill="white"/>
<path d="M1021.11 107.672C1021.11 109.378 1020.82 110.947 1020.23 112.379C1019.64 113.811 1018.83 115.048 1017.79 116.09C1016.75 117.132 1015.51 117.945 1014.08 118.531C1012.66 119.104 1011.11 119.391 1009.43 119.391H1002.55C1000.87 119.391 999.319 119.104 997.887 118.531C996.454 117.945 995.217 117.132 994.176 116.09C993.134 115.048 992.314 113.811 991.715 112.379C991.129 110.947 990.836 109.378 990.836 107.672V102.32C990.836 100.628 991.129 99.0651 991.715 97.6328C992.314 96.1875 993.134 94.9505 994.176 93.9219C995.217 92.8802 996.454 92.0664 997.887 91.4805C999.319 90.8945 1000.87 90.6016 1002.55 90.6016H1009.43C1011.11 90.6016 1012.66 90.8945 1014.08 91.4805C1015.51 92.0664 1016.75 92.8802 1017.79 93.9219C1018.83 94.9505 1019.64 96.1875 1020.23 97.6328C1020.82 99.0651 1021.11 100.628 1021.11 102.32V107.672ZM1016.03 102.32C1016.03 101.318 1015.87 100.413 1015.54 99.6055C1015.23 98.7852 1014.78 98.0885 1014.19 97.5156C1013.62 96.9297 1012.93 96.4805 1012.1 96.168C1011.3 95.8425 1010.41 95.6797 1009.43 95.6797H1002.55C1001.56 95.6797 1000.66 95.8425 999.84 96.168C999.033 96.4805 998.336 96.9297 997.75 97.5156C997.164 98.0885 996.708 98.7852 996.383 99.6055C996.07 100.413 995.914 101.318 995.914 102.32V107.672C995.914 108.674 996.07 109.586 996.383 110.406C996.708 111.214 997.164 111.91 997.75 112.496C998.336 113.069 999.033 113.518 999.84 113.844C1000.66 114.156 1001.56 114.312 1002.55 114.312H1009.39C1010.38 114.312 1011.28 114.156 1012.09 113.844C1012.91 113.518 1013.61 113.069 1014.19 112.496C1014.78 111.91 1015.23 111.214 1015.54 110.406C1015.87 109.586 1016.03 108.674 1016.03 107.672V102.32Z" fill="white"/>
<path d="M1051.85 119H1028.69C1028.32 119 1027.98 118.935 1027.67 118.805C1027.36 118.675 1027.09 118.499 1026.85 118.277C1026.63 118.043 1026.45 117.77 1026.32 117.457C1026.19 117.145 1026.13 116.806 1026.13 116.441V90.9922H1031.21V113.922H1051.85V119Z" fill="white"/>
<path d="M1083.53 107.281C1083.53 108.987 1083.23 110.556 1082.63 111.988C1082.05 113.421 1081.23 114.658 1080.19 115.699C1079.15 116.728 1077.91 117.535 1076.48 118.121C1075.05 118.707 1073.49 119 1071.81 119H1058.1C1057.74 119 1057.4 118.935 1057.09 118.805C1056.77 118.675 1056.5 118.499 1056.27 118.277C1056.04 118.043 1055.87 117.77 1055.74 117.457C1055.61 117.145 1055.54 116.806 1055.54 116.441V93.5508C1055.54 93.1992 1055.61 92.8672 1055.74 92.5547C1055.87 92.2422 1056.04 91.9687 1056.27 91.7344C1056.5 91.5 1056.77 91.3177 1057.09 91.1875C1057.4 91.0573 1057.74 90.9922 1058.1 90.9922H1071.81C1073.49 90.9922 1075.05 91.2852 1076.48 91.8711C1077.91 92.457 1079.15 93.2708 1080.19 94.3125C1081.23 95.3411 1082.05 96.5781 1082.63 98.0234C1083.23 99.4557 1083.53 101.018 1083.53 102.711V107.281ZM1078.45 102.711C1078.45 101.721 1078.29 100.816 1077.96 99.9961C1077.65 99.1758 1077.2 98.4792 1076.62 97.9062C1076.03 97.3203 1075.33 96.8711 1074.51 96.5586C1073.7 96.2331 1072.8 96.0703 1071.81 96.0703H1060.62V113.922H1071.81C1072.8 113.922 1073.7 113.766 1074.51 113.453C1075.33 113.128 1076.03 112.678 1076.62 112.105C1077.2 111.519 1077.65 110.823 1077.96 110.016C1078.29 109.195 1078.45 108.284 1078.45 107.281V102.711Z" fill="white"/>
<path d="M1111.54 107.555H1095.5V102.438H1111.54V107.555ZM1113.82 119H1095.5C1094.8 119 1094.03 118.876 1093.2 118.629C1092.37 118.382 1091.59 117.978 1090.88 117.418C1090.17 116.845 1089.58 116.109 1089.1 115.211C1088.63 114.299 1088.4 113.186 1088.4 111.871V93.5508C1088.4 93.1992 1088.46 92.8672 1088.59 92.5547C1088.72 92.2422 1088.9 91.9687 1089.12 91.7344C1089.35 91.5 1089.63 91.3177 1089.94 91.1875C1090.25 91.0573 1090.59 90.9922 1090.95 90.9922H1113.82V96.0703H1093.47V111.871C1093.47 112.535 1093.65 113.043 1094 113.395C1094.35 113.746 1094.87 113.922 1095.54 113.922H1113.82V119Z" fill="white"/>
<path d="M1146.73 100.406C1146.73 101.565 1146.59 102.6 1146.3 103.512C1146.02 104.423 1145.63 105.23 1145.13 105.934C1144.65 106.624 1144.09 107.216 1143.45 107.711C1142.81 108.206 1142.14 108.616 1141.44 108.941C1140.75 109.254 1140.05 109.482 1139.33 109.625C1138.63 109.768 1137.96 109.84 1137.34 109.84L1147.94 119H1140.09L1129.51 109.84H1125.85V104.762H1137.34C1137.98 104.71 1138.56 104.579 1139.08 104.371C1139.61 104.15 1140.07 103.857 1140.44 103.492C1140.84 103.128 1141.13 102.691 1141.34 102.184C1141.55 101.663 1141.66 101.07 1141.66 100.406V97.2031C1141.66 96.9167 1141.62 96.7018 1141.54 96.5586C1141.47 96.4023 1141.38 96.2917 1141.27 96.2266C1141.16 96.1484 1141.04 96.1029 1140.91 96.0898C1140.8 96.0768 1140.69 96.0703 1140.58 96.0703H1123.82V119H1118.75V93.5508C1118.75 93.1992 1118.81 92.8672 1118.94 92.5547C1119.07 92.2422 1119.25 91.9687 1119.47 91.7344C1119.7 91.5 1119.98 91.3177 1120.29 91.1875C1120.6 91.0573 1120.94 90.9922 1121.3 90.9922H1140.58C1141.71 90.9922 1142.67 91.2005 1143.45 91.6172C1144.23 92.0208 1144.87 92.5352 1145.35 93.1602C1145.84 93.7721 1146.19 94.4362 1146.4 95.1523C1146.62 95.8685 1146.73 96.5391 1146.73 97.1641V100.406Z" fill="white"/>
<path d="M38.6719 119H15.5078C15.1432 119 14.8047 118.935 14.4922 118.805C14.1797 118.675 13.9062 118.499 13.6719 118.277C13.4505 118.043 13.2747 117.77 13.1445 117.457C13.0143 117.145 12.9492 116.806 12.9492 116.441V90.9922H18.0273V113.922H38.6719V119Z" fill="white"/>
<path d="M71.3672 107.672C71.3672 109.378 71.0742 110.947 70.4883 112.379C69.9023 113.811 69.0885 115.048 68.0469 116.09C67.0052 117.132 65.7682 117.945 64.3359 118.531C62.9167 119.104 61.3672 119.391 59.6875 119.391H52.8125C51.1328 119.391 49.5768 119.104 48.1445 118.531C46.7122 117.945 45.4753 117.132 44.4336 116.09C43.3919 115.048 42.5716 113.811 41.9727 112.379C41.3867 110.947 41.0938 109.378 41.0938 107.672V102.32C41.0938 100.628 41.3867 99.0651 41.9727 97.6328C42.5716 96.1875 43.3919 94.9505 44.4336 93.9219C45.4753 92.8802 46.7122 92.0664 48.1445 91.4805C49.5768 90.8945 51.1328 90.6016 52.8125 90.6016H59.6875C61.3672 90.6016 62.9167 90.8945 64.3359 91.4805C65.7682 92.0664 67.0052 92.8802 68.0469 93.9219C69.0885 94.9505 69.9023 96.1875 70.4883 97.6328C71.0742 99.0651 71.3672 100.628 71.3672 102.32V107.672ZM66.2891 102.32C66.2891 101.318 66.1263 100.413 65.8008 99.6055C65.4883 98.7852 65.0391 98.0885 64.4531 97.5156C63.8802 96.9297 63.1836 96.4805 62.3633 96.168C61.556 95.8425 60.6641 95.6797 59.6875 95.6797H52.8125C51.8229 95.6797 50.918 95.8425 50.0977 96.168C49.2904 96.4805 48.5938 96.9297 48.0078 97.5156C47.4219 98.0885 46.9661 98.7852 46.6406 99.6055C46.3281 100.413 46.1719 101.318 46.1719 102.32V107.672C46.1719 108.674 46.3281 109.586 46.6406 110.406C46.9661 111.214 47.4219 111.91 48.0078 112.496C48.5938 113.069 49.2904 113.518 50.0977 113.844C50.918 114.156 51.8229 114.312 52.8125 114.312H59.6484C60.638 114.312 61.5365 114.156 62.3438 113.844C63.1641 113.518 63.8672 113.069 64.4531 112.496C65.0391 111.91 65.4883 111.214 65.8008 110.406C66.1263 109.586 66.2891 108.674 66.2891 107.672V102.32Z" fill="white"/>
<path d="M104.023 116.441C104.023 116.806 103.958 117.145 103.828 117.457C103.698 117.77 103.516 118.043 103.281 118.277C103.06 118.499 102.793 118.675 102.48 118.805C102.168 118.935 101.829 119 101.465 119H83.1445C82.6758 119 82.168 118.948 81.6211 118.844C81.0872 118.727 80.5534 118.551 80.0195 118.316C79.4987 118.082 78.9974 117.783 78.5156 117.418C78.0339 117.04 77.6042 116.591 77.2266 116.07C76.862 115.536 76.569 114.924 76.3477 114.234C76.1263 113.531 76.0156 112.743 76.0156 111.871V98.1211C76.0156 97.6523 76.0677 97.151 76.1719 96.6172C76.2891 96.0703 76.4648 95.5365 76.6992 95.0156C76.9336 94.4818 77.2396 93.974 77.6172 93.4922C77.9948 93.0104 78.444 92.5872 78.9648 92.2227C79.4987 91.845 80.1107 91.5456 80.8008 91.3242C81.4909 91.1029 82.2721 90.9922 83.1445 90.9922H103.789V96.0703H83.1445C82.4805 96.0703 81.9727 96.2461 81.6211 96.5977C81.2695 96.9492 81.0938 97.47 81.0938 98.1602V111.871C81.0938 112.522 81.2695 113.03 81.6211 113.395C81.9857 113.746 82.4935 113.922 83.1445 113.922H98.9453V107.555H85.4297V102.438H101.465C101.829 102.438 102.168 102.509 102.48 102.652C102.793 102.783 103.06 102.965 103.281 103.199C103.516 103.434 103.698 103.707 103.828 104.019C103.958 104.319 104.023 104.644 104.023 104.996V116.441Z" fill="white"/>
<path d="M138.711 107.672C138.711 109.378 138.418 110.947 137.832 112.379C137.246 113.811 136.432 115.048 135.391 116.09C134.349 117.132 133.112 117.945 131.68 118.531C130.26 119.104 128.711 119.391 127.031 119.391H120.156C118.477 119.391 116.921 119.104 115.488 118.531C114.056 117.945 112.819 117.132 111.777 116.09C110.736 115.048 109.915 113.811 109.316 112.379C108.73 110.947 108.438 109.378 108.438 107.672V102.32C108.438 100.628 108.73 99.0651 109.316 97.6328C109.915 96.1875 110.736 94.9505 111.777 93.9219C112.819 92.8802 114.056 92.0664 115.488 91.4805C116.921 90.8945 118.477 90.6016 120.156 90.6016H127.031C128.711 90.6016 130.26 90.8945 131.68 91.4805C133.112 92.0664 134.349 92.8802 135.391 93.9219C136.432 94.9505 137.246 96.1875 137.832 97.6328C138.418 99.0651 138.711 100.628 138.711 102.32V107.672ZM133.633 102.32C133.633 101.318 133.47 100.413 133.145 99.6055C132.832 98.7852 132.383 98.0885 131.797 97.5156C131.224 96.9297 130.527 96.4805 129.707 96.168C128.9 95.8425 128.008 95.6797 127.031 95.6797H120.156C119.167 95.6797 118.262 95.8425 117.441 96.168C116.634 96.4805 115.938 96.9297 115.352 97.5156C114.766 98.0885 114.31 98.7852 113.984 99.6055C113.672 100.413 113.516 101.318 113.516 102.32V107.672C113.516 108.674 113.672 109.586 113.984 110.406C114.31 111.214 114.766 111.91 115.352 112.496C115.938 113.069 116.634 113.518 117.441 113.844C118.262 114.156 119.167 114.312 120.156 114.312H126.992C127.982 114.312 128.88 114.156 129.688 113.844C130.508 113.518 131.211 113.069 131.797 112.496C132.383 111.91 132.832 111.214 133.145 110.406C133.47 109.586 133.633 108.674 133.633 107.672V102.32Z" fill="white"/>
<path d="M148.848 102.438H166.68V90.9922H171.758V119H166.68V107.555H148.848V119H143.77V90.9922H148.848V102.438Z" fill="white"/>
<path d="M207.109 107.672C207.109 109.378 206.816 110.947 206.23 112.379C205.645 113.811 204.831 115.048 203.789 116.09C202.747 117.132 201.51 117.945 200.078 118.531C198.659 119.104 197.109 119.391 195.43 119.391H188.555C186.875 119.391 185.319 119.104 183.887 118.531C182.454 117.945 181.217 117.132 180.176 116.09C179.134 115.048 178.314 113.811 177.715 112.379C177.129 110.947 176.836 109.378 176.836 107.672V102.32C176.836 100.628 177.129 99.0651 177.715 97.6328C178.314 96.1875 179.134 94.9505 180.176 93.9219C181.217 92.8802 182.454 92.0664 183.887 91.4805C185.319 90.8945 186.875 90.6016 188.555 90.6016H195.43C197.109 90.6016 198.659 90.8945 200.078 91.4805C201.51 92.0664 202.747 92.8802 203.789 93.9219C204.831 94.9505 205.645 96.1875 206.23 97.6328C206.816 99.0651 207.109 100.628 207.109 102.32V107.672ZM202.031 102.32C202.031 101.318 201.868 100.413 201.543 99.6055C201.23 98.7852 200.781 98.0885 200.195 97.5156C199.622 96.9297 198.926 96.4805 198.105 96.168C197.298 95.8425 196.406 95.6797 195.43 95.6797H188.555C187.565 95.6797 186.66 95.8425 185.84 96.168C185.033 96.4805 184.336 96.9297 183.75 97.5156C183.164 98.0885 182.708 98.7852 182.383 99.6055C182.07 100.413 181.914 101.318 181.914 102.32V107.672C181.914 108.674 182.07 109.586 182.383 110.406C182.708 111.214 183.164 111.91 183.75 112.496C184.336 113.069 185.033 113.518 185.84 113.844C186.66 114.156 187.565 114.312 188.555 114.312H195.391C196.38 114.312 197.279 114.156 198.086 113.844C198.906 113.518 199.609 113.069 200.195 112.496C200.781 111.91 201.23 111.214 201.543 110.406C201.868 109.586 202.031 108.674 202.031 107.672V102.32Z" fill="white"/>
<path d="M237.852 119H214.688C214.323 119 213.984 118.935 213.672 118.805C213.359 118.675 213.086 118.499 212.852 118.277C212.63 118.043 212.454 117.77 212.324 117.457C212.194 117.145 212.129 116.806 212.129 116.441V90.9922H217.207V113.922H237.852V119Z" fill="white"/>
<path d="M269.531 107.281C269.531 108.987 269.232 110.556 268.633 111.988C268.047 113.421 267.233 114.658 266.191 115.699C265.15 116.728 263.913 117.535 262.48 118.121C261.048 118.707 259.492 119 257.812 119H244.102C243.737 119 243.398 118.935 243.086 118.805C242.773 118.675 242.5 118.499 242.266 118.277C242.044 118.043 241.868 117.77 241.738 117.457C241.608 117.145 241.543 116.806 241.543 116.441V93.5508C241.543 93.1992 241.608 92.8672 241.738 92.5547C241.868 92.2422 242.044 91.9687 242.266 91.7344C242.5 91.5 242.773 91.3177 243.086 91.1875C243.398 91.0573 243.737 90.9922 244.102 90.9922H257.812C259.492 90.9922 261.048 91.2852 262.48 91.8711C263.913 92.457 265.15 93.2708 266.191 94.3125C267.233 95.3411 268.047 96.5781 268.633 98.0234C269.232 99.4557 269.531 101.018 269.531 102.711V107.281ZM264.453 102.711C264.453 101.721 264.29 100.816 263.965 99.9961C263.652 99.1758 263.203 98.4792 262.617 97.9062C262.031 97.3203 261.328 96.8711 260.508 96.5586C259.701 96.2331 258.802 96.0703 257.812 96.0703H246.621V113.922H257.812C258.802 113.922 259.701 113.766 260.508 113.453C261.328 113.128 262.031 112.678 262.617 112.105C263.203 111.519 263.652 110.823 263.965 110.016C264.29 109.195 264.453 108.284 264.453 107.281V102.711Z" fill="white"/>
<path d="M297.539 107.555H281.504V102.438H297.539V107.555ZM299.824 119H281.504C280.801 119 280.033 118.876 279.199 118.629C278.366 118.382 277.591 117.978 276.875 117.418C276.172 116.845 275.579 116.109 275.098 115.211C274.629 114.299 274.395 113.186 274.395 111.871V93.5508C274.395 93.1992 274.46 92.8672 274.59 92.5547C274.72 92.2422 274.896 91.9687 275.117 91.7344C275.352 91.5 275.625 91.3177 275.938 91.1875C276.25 91.0573 276.589 90.9922 276.953 90.9922H299.824V96.0703H279.473V111.871C279.473 112.535 279.648 113.043 280 113.395C280.352 113.746 280.866 113.922 281.543 113.922H299.824V119Z" fill="white"/>
<path d="M332.734 100.406C332.734 101.565 332.591 102.6 332.305 103.512C332.018 104.423 331.628 105.23 331.133 105.934C330.651 106.624 330.091 107.216 329.453 107.711C328.815 108.206 328.145 108.616 327.441 108.941C326.751 109.254 326.048 109.482 325.332 109.625C324.629 109.768 323.965 109.84 323.34 109.84L333.945 119H326.094L315.508 109.84H311.855V104.762H323.34C323.978 104.71 324.557 104.579 325.078 104.371C325.612 104.15 326.068 103.857 326.445 103.492C326.836 103.128 327.135 102.691 327.344 102.184C327.552 101.663 327.656 101.07 327.656 100.406V97.2031C327.656 96.9167 327.617 96.7018 327.539 96.5586C327.474 96.4023 327.383 96.2917 327.266 96.2266C327.161 96.1484 327.044 96.1029 326.914 96.0898C326.797 96.0768 326.686 96.0703 326.582 96.0703H309.824V119H304.746V93.5508C304.746 93.1992 304.811 92.8672 304.941 92.5547C305.072 92.2422 305.247 91.9687 305.469 91.7344C305.703 91.5 305.977 91.3177 306.289 91.1875C306.602 91.0573 306.94 90.9922 307.305 90.9922H326.582C327.715 90.9922 328.672 91.2005 329.453 91.6172C330.234 92.0208 330.866 92.5352 331.348 93.1602C331.842 93.7721 332.194 94.4362 332.402 95.1523C332.624 95.8685 332.734 96.5391 332.734 97.1641V100.406Z" fill="white"/>
</svg>
