<svg width="1392" height="1841" viewBox="0 0 1392 1841" fill="none" xmlns="http://www.w3.org/2000/svg">
<path d="M336 385.5C363.338 385.5 385.5 363.338 385.5 336C385.5 308.662 363.338 286.5 336 286.5C308.662 286.5 286.5 308.662 286.5 336C286.5 363.338 308.662 385.5 336 385.5Z" stroke="#8DFD1B"/>
<path d="M336.5 415.5C380.683 415.5 416.5 379.683 416.5 335.5C416.5 291.317 380.683 255.5 336.5 255.5C292.317 255.5 256.5 291.317 256.5 335.5C256.5 379.683 292.317 415.5 336.5 415.5Z" stroke="#8DFD1B"/>
<path d="M335.605 464.71C406.908 464.71 464.71 406.908 464.71 335.605C464.71 264.302 406.908 206.5 335.605 206.5C264.302 206.5 206.5 264.302 206.5 335.605C206.5 406.908 264.302 464.71 335.605 464.71Z" stroke="#8DFD1B" stroke-opacity="0.75"/>
<path d="M335.664 543.828C450.63 543.828 543.828 450.63 543.828 335.664C543.828 220.698 450.63 127.5 335.664 127.5C220.698 127.5 127.5 220.698 127.5 335.664C127.5 450.63 220.698 543.828 335.664 543.828Z" stroke="#8DFD1B" stroke-opacity="0.5"/>
<path d="M335.951 671.402C521.215 671.402 671.402 521.215 671.402 335.951C671.402 150.687 521.215 0.5 335.951 0.5C150.687 0.5 0.5 150.687 0.5 335.951C0.5 521.215 150.687 671.402 335.951 671.402Z" stroke="#8DFD1B" stroke-opacity="0.25"/>
<path d="M1056 881.5C1083.34 881.5 1105.5 859.338 1105.5 832C1105.5 804.662 1083.34 782.5 1056 782.5C1028.66 782.5 1006.5 804.662 1006.5 832C1006.5 859.338 1028.66 881.5 1056 881.5Z" stroke="#8DFD1B"/>
<path d="M1056.5 911.5C1100.68 911.5 1136.5 875.683 1136.5 831.5C1136.5 787.317 1100.68 751.5 1056.5 751.5C1012.32 751.5 976.5 787.317 976.5 831.5C976.5 875.683 1012.32 911.5 1056.5 911.5Z" stroke="#8DFD1B"/>
<path d="M1055.61 960.71C1126.91 960.71 1184.71 902.908 1184.71 831.605C1184.71 760.302 1126.91 702.5 1055.61 702.5C984.302 702.5 926.5 760.302 926.5 831.605C926.5 902.908 984.302 960.71 1055.61 960.71Z" stroke="#8DFD1B" stroke-opacity="0.75"/>
<path d="M1055.66 1039.83C1170.63 1039.83 1263.83 946.63 1263.83 831.664C1263.83 716.698 1170.63 623.5 1055.66 623.5C940.698 623.5 847.5 716.698 847.5 831.664C847.5 946.63 940.698 1039.83 1055.66 1039.83Z" stroke="#8DFD1B" stroke-opacity="0.5"/>
<path d="M1055.95 1167.4C1241.22 1167.4 1391.4 1017.22 1391.4 831.951C1391.4 646.687 1241.22 496.5 1055.95 496.5C870.687 496.5 720.5 646.687 720.5 831.951C720.5 1017.22 870.687 1167.4 1055.95 1167.4Z" stroke="#8DFD1B" stroke-opacity="0.25"/>
<path d="M336 1554.5C363.338 1554.5 385.5 1532.34 385.5 1505C385.5 1477.66 363.338 1455.5 336 1455.5C308.662 1455.5 286.5 1477.66 286.5 1505C286.5 1532.34 308.662 1554.5 336 1554.5Z" stroke="#8DFD1B"/>
<path d="M336.5 1584.5C380.683 1584.5 416.5 1548.68 416.5 1504.5C416.5 1460.32 380.683 1424.5 336.5 1424.5C292.317 1424.5 256.5 1460.32 256.5 1504.5C256.5 1548.68 292.317 1584.5 336.5 1584.5Z" stroke="#8DFD1B"/>
<path d="M335.605 1633.71C406.908 1633.71 464.71 1575.91 464.71 1504.61C464.71 1433.3 406.908 1375.5 335.605 1375.5C264.302 1375.5 206.5 1433.3 206.5 1504.61C206.5 1575.91 264.302 1633.71 335.605 1633.71Z" stroke="#8DFD1B" stroke-opacity="0.75"/>
<path d="M335.664 1712.83C450.63 1712.83 543.828 1619.63 543.828 1504.66C543.828 1389.7 450.63 1296.5 335.664 1296.5C220.698 1296.5 127.5 1389.7 127.5 1504.66C127.5 1619.63 220.698 1712.83 335.664 1712.83Z" stroke="#8DFD1B" stroke-opacity="0.5"/>
<path d="M335.951 1840.4C521.215 1840.4 671.402 1690.22 671.402 1504.95C671.402 1319.69 521.215 1169.5 335.951 1169.5C150.687 1169.5 0.5 1319.69 0.5 1504.95C0.5 1690.22 150.687 1840.4 335.951 1840.4Z" stroke="#8DFD1B" stroke-opacity="0.25"/>
</svg>
