<svg width="103" height="24" viewBox="0 0 103 24" fill="none" xmlns="http://www.w3.org/2000/svg">
<path d="M26.8042 23.1999H22.7184V9.8562L15.5292 22.528C15.3525 22.8509 15.103 23.0957 14.7807 23.2624C14.4688 23.4291 14.1309 23.5124 13.767 23.5124C13.4135 23.5124 13.0808 23.4291 12.769 23.2624C12.4675 23.0957 12.2283 22.8509 12.0516 22.528L4.83124 9.8562V23.1999H0.776611V2.52803C0.776611 2.05928 0.911768 1.64261 1.18208 1.27803C1.46278 0.913451 1.82666 0.668656 2.27371 0.543656C2.49203 0.491573 2.71036 0.475947 2.92868 0.496781C3.14701 0.507198 3.35494 0.554073 3.55247 0.637406C3.7604 0.710322 3.94754 0.819699 4.11388 0.965531C4.28023 1.10095 4.42058 1.26761 4.53494 1.46553L13.767 17.5436L22.9991 1.46553C23.2382 1.0697 23.5657 0.788447 23.9816 0.621781C24.4078 0.455114 24.8497 0.429073 25.3071 0.543656C25.7438 0.668656 26.1024 0.913451 26.3832 1.27803C26.6638 1.64261 26.8042 2.05928 26.8042 2.52803V23.1999Z" fill="white"/>
<path d="M49.0891 11.9033C49.0891 12.4658 48.9903 13.0752 48.7928 13.7314C48.5952 14.3773 48.2729 14.9814 47.8259 15.5439C47.3893 16.096 46.8122 16.5596 46.0949 16.9346C45.3879 17.3096 44.525 17.497 43.5062 17.497H36.1922V13.6377H43.5062C44.0572 13.6377 44.4834 13.471 44.7849 13.1377C45.0864 12.7939 45.2371 12.3721 45.2371 11.8721C45.2371 11.3408 45.0656 10.9242 44.7225 10.6221C44.3899 10.32 43.9844 10.169 43.5062 10.169H36.1922C35.6412 10.169 35.215 10.3408 34.9135 10.6846C34.612 11.0179 34.4612 11.4346 34.4612 11.9346V17.6065C34.4612 18.1481 34.6276 18.57 34.9603 18.8721C35.3033 19.1742 35.7244 19.3252 36.2234 19.3252H43.5062V23.2002H36.1922C35.6308 23.2002 35.0226 23.1012 34.3677 22.9033C33.7231 22.7054 33.1201 22.3877 32.5586 21.9502C32.0076 21.5022 31.545 20.9242 31.1708 20.2158C30.7964 19.497 30.6093 18.6273 30.6093 17.6065V11.9033C30.6093 11.3408 30.7081 10.7366 30.9056 10.0908C31.1031 9.43456 31.4203 8.8304 31.8569 8.27832C32.3039 7.71582 32.881 7.24707 33.5879 6.87207C34.3052 6.49707 35.1734 6.30957 36.1922 6.30957H43.5062C44.0676 6.30957 44.6705 6.40852 45.3151 6.60644C45.9701 6.80436 46.5731 7.12727 47.1241 7.57519C47.6856 8.01272 48.1534 8.5908 48.5276 9.3096C48.9019 10.0179 49.0891 10.8825 49.0891 11.9033Z" fill="white"/>
<path d="M67.1478 10.3721H60.0678V23.2002H55.9664V10.3721H50.6953V6.30957H55.9664V0.793945H60.0678V6.30957H67.1478V10.3721Z" fill="white"/>
<path d="M86.2509 17.6065C86.2509 18.169 86.1527 18.7783 85.9547 19.4346C85.7575 20.0804 85.4349 20.6846 84.9878 21.247C84.5518 21.7991 83.9745 22.2627 83.2567 22.6377C82.5501 23.0127 81.687 23.2002 80.6682 23.2002H73.3544C72.793 23.2002 72.1848 23.1012 71.5298 22.9033C70.8852 22.7054 70.2822 22.3877 69.7208 21.9502C69.1698 21.5022 68.7072 20.9242 68.3329 20.2158C67.9587 19.497 67.7715 18.6273 67.7715 17.6065C67.7715 17.0439 67.8703 16.4346 68.0678 15.7783C68.2654 15.1221 68.5824 14.5179 69.0191 13.9658C69.4661 13.4033 70.0432 12.9346 70.7501 12.5596C71.4675 12.1846 72.3356 11.997 73.3544 11.997H80.6682V15.8721H73.3544C72.8034 15.8721 72.3771 16.0439 72.0756 16.3877C71.7741 16.721 71.6234 17.1377 71.6234 17.6377C71.6234 18.169 71.795 18.5856 72.1381 18.8877C72.4916 19.1794 72.9074 19.3252 73.3857 19.3252H80.6682C81.2191 19.3252 81.6455 19.1586 81.9473 18.8252C82.2483 18.4918 82.3992 18.0752 82.3992 17.5752V11.9033C82.3992 11.3721 82.2331 10.9502 81.9002 10.6377C81.5784 10.3252 81.1672 10.169 80.6682 10.169H71.7638V6.30957H80.6682C81.2295 6.30957 81.8331 6.40852 82.4774 6.60644C83.1322 6.80436 83.735 7.12727 84.2859 7.57519C84.848 8.01272 85.3159 8.5908 85.6896 9.3096C86.0641 10.0179 86.2509 10.8825 86.2509 11.9033V17.6065Z" fill="white"/>
<path d="M95.3349 2.73691C95.3349 3.01504 95.3006 3.26348 95.2319 3.48222C95.164 3.70097 95.0698 3.89473 94.9516 4.06348C94.8359 4.2291 94.7017 4.37129 94.5492 4.49004C94.3967 4.60879 94.2354 4.70722 94.0669 4.78535C93.9017 4.86035 93.734 4.91504 93.5623 4.94942C93.3939 4.98379 93.235 5.00098 93.0849 5.00098L95.6255 7.19942H93.7444L91.2085 5.00098H90.3342V3.78222H93.0849C93.2374 3.76973 93.3763 3.73848 93.5016 3.68848C93.6294 3.63535 93.738 3.56504 93.829 3.47754C93.9224 3.39004 93.9943 3.28535 94.0438 3.16348C94.0941 3.03848 94.1188 2.89629 94.1188 2.73691V1.96817C94.1188 1.89942 94.1093 1.84786 94.0909 1.81348C94.0749 1.77598 94.0534 1.74942 94.0254 1.73379C94.0007 1.71504 93.9719 1.7041 93.9408 1.70098C93.9128 1.69785 93.8865 1.69629 93.8617 1.69629H89.8471V7.19942H88.6311V1.0916C88.6311 1.00722 88.6463 0.927535 88.6774 0.852535C88.7094 0.777539 88.7509 0.711913 88.8044 0.655664C88.8603 0.599413 88.9257 0.555664 89.0008 0.524413C89.0758 0.493164 89.1565 0.477539 89.2435 0.477539H93.8617C94.1332 0.477539 94.3624 0.527539 94.5492 0.627539C94.7361 0.724413 94.8878 0.847855 95.0027 0.997855C95.1217 1.14473 95.2055 1.3041 95.2558 1.47598C95.3085 1.64786 95.3349 1.80879 95.3349 1.95879V2.73691Z" fill="white"/>
<path d="M102.717 7.19942H97.1689C97.0819 7.19942 97.0005 7.18379 96.9262 7.15254C96.8511 7.12129 96.7857 7.0791 96.729 7.02598C96.6763 6.96973 96.634 6.9041 96.6028 6.8291C96.5717 6.7541 96.5565 6.67285 96.5565 6.58535V0.477539H97.7726V5.98066H102.717V7.19942Z" fill="white"/>
</svg>
